<svg viewBox="0 0 132 117" xmlns="http://www.w3.org/2000/svg" xmlns:xlink="http://www.w3.org/1999/xlink">
    <title>矩形</title>
    <defs>
        <linearGradient x1="50%" y1="79.4334927%" x2="50%" y2="0%" id="linearGradient-1">
            <stop stop-color="#A51AF8" offset="0%"></stop>
            <stop stop-color="#DC6DF5" offset="100%"></stop>
        </linearGradient>
        <path d="M71.1129446,1.65448973 C72.8771713,2.69062287 74.3471795,4.16063111 75.3833126,5.9248578 L128.419195,96.229198 C131.775464,101.943926 129.863555,109.297422 124.148827,112.653691 C122.306391,113.735756 120.208453,114.30626 118.071765,114.30626 L110.845,114.306 L75.3833126,53.9248578 C74.416255,52.2782462 73.071244,50.8879316 71.4618256,49.86746 L71.1129446,49.6544897 C65.3982166,46.2982209 58.0447208,48.2101298 54.688452,53.9248578 L54.688452,53.9248578 L19.226,114.306 L12,114.30626 C5.372583,114.30626 6.39488462e-14,108.933677 6.39488462e-14,102.30626 C6.39488462e-14,100.169572 0.570504214,98.0716337 1.65256967,96.229198 L54.688452,5.9248578 C58.0447208,0.210129832 65.3982166,-1.70177908 71.1129446,1.65448973 Z" id="path-2"></path>
        <linearGradient x1="100%" y1="71.9481753%" x2="0%" y2="71.9481753%" id="linearGradient-4">
            <stop stop-color="#EE4459" offset="0%"></stop>
            <stop stop-color="#FBF089" offset="100%"></stop>
        </linearGradient>
        <path d="M10.1423214,5.33771419 C32.7960575,1.77923806 51.0822704,0 65.00096,0 C78.9196497,0 97.2053745,1.77923806 119.858135,5.33771419 C125.696864,6.25210606 129.999891,11.2820596 130,17.1919556 L130,20 C130,26.1095746 125.047211,31.0623634 118.937637,31.0623634 C118.376389,31.0623634 117.815954,31.0196511 117.261184,30.9346257 C95.8038597,27.6448752 78.3837851,26 65.00096,26 C51.6180226,26 34.1973166,27.6449029 12.7388421,30.9347086 C6.69978068,31.8605298 1.05360812,27.7154564 0.127758316,21.6763994 C0.0427094167,21.1216494 -1.7076258e-15,20.5612315 0,20 L0,17.1919556 C0.000112236339,11.2818909 4.30338116,6.25184878 10.1423214,5.33771419 Z" id="path-5"></path>
    </defs>
    <g id="页面-1" stroke="none" stroke-width="1" fill="none" fill-rule="evenodd">
        <g id="矩形" transform="translate(0.964118, 0.693740)">
            <mask id="mask-3" fill="white">
                <use xlink:href="#path-2"></use>
            </mask>
            <use id="蒙版" fill="url(#linearGradient-1)" xlink:href="#path-2"></use>
            <polygon fill-opacity="0.2" fill="#FFFFFF" mask="url(#mask-3)" points="35.4882273 19.7031474 58.0413534 -11.6937398 83.912051 5.95818976 0 94.4304552"></polygon>
            <path d="M36,-32 L126,-32 L126,80.3467441 C110.991836,57.913759 95.6290684,41.6972665 79.9116968,31.6972665 C64.1943251,21.6972665 42.024505,15.242108 13.4022363,12.3317909 L36,-32 Z" fill-opacity="0.16" fill="#FFFFFF" mask="url(#mask-3)"></path>
        </g>
        <g id="矩形" transform="translate(1.000000, 85.000000)">
            <mask id="mask-6" fill="white">
                <use xlink:href="#path-5"></use>
            </mask>
            <use id="蒙版" fill="url(#linearGradient-4)" xlink:href="#path-5"></use>
            <path d="M-0.383984225,21.6919 C-3.39605552,35.1834269 16.559952,32.0824493 59.4840383,12.3889673 C99.5590069,-5.9973454 140.080579,-9.968945 181.048753,0.474168506 C186.02977,1.74498909 189.236042,6.58515494 188.463262,11.6673124 L183.698355,43.0025108 C182.867663,48.4625287 177.768098,52.2154235 172.308066,51.3848222 C172.028047,51.3422246 171.749964,51.2877493 171.474742,51.2208235 C139.344747,43.4952923 113.536824,39.6325267 94.0509729,39.6325267 C74.4676562,39.6325267 48.4981516,43.534031 16.1424588,51.3370395 C10.7734562,52.631511 5.37238799,49.3272333 4.07912692,43.957939 C4.04880264,43.8320403 4.02092679,43.7055643 3.99546965,43.5785919 L-0.383984225,21.6919 Z" fill-opacity="0.0659683334" fill="#000000" mask="url(#mask-6)" transform="translate(94.556572, 24.322239) scale(-1, 1) rotate(16.000000) translate(-94.556572, -24.322239) "></path>
            <path d="M-26.604976,21.6656546 C-12.8816939,18.2495658 12.8010137,6.53163754 50.4431467,-13.4881301 C89.9022698,-34.4742542 122.84796,-37.4651579 149.280219,-22.4608414 C152.886692,-20.4179584 154.856268,-16.3606117 154.233262,-12.2628222 L149.119194,21.3685501 C148.288502,26.8285681 143.188936,30.5814629 137.728905,29.7508616 C137.448886,29.708264 137.170803,29.6537887 136.895581,29.5868629 C104.765586,21.8613317 78.9576627,17.9985661 59.4718116,17.9985661 C38.8411035,17.9985661 11.1228236,22.3285657 -23.6830281,30.9885649 C-26.3893803,31.6619627 -29.1429503,30.0712906 -29.9116676,27.3904548 C-30.6110875,24.9512878 -29.2007437,22.4069603 -26.7615767,21.7075404 C-26.7096305,21.6926451 -26.6574255,21.6786674 -26.604976,21.6656546 Z" fill-opacity="0.095968" fill="#FFFFFF" mask="url(#mask-6)" transform="translate(61.960188, 0.183479) scale(-1, -1) rotate(16.000000) translate(-61.960188, -0.183479) "></path>
        </g>
    </g>
</svg>