<svg  viewBox="0 0 132 117" version="1.1" xmlns="http://www.w3.org/2000/svg" xmlns:xlink="http://www.w3.org/1999/xlink">
    <title>矩形</title>
    <defs>
        <linearGradient x1="50%" y1="79.4334927%" x2="50%" y2="0%" id="linearGradient-1">
            <stop stop-color="#A51AF8" offset="0%"></stop>
            <stop stop-color="#DC6DF5" offset="100%"></stop>
        </linearGradient>
        <path d="M71.1129446,1.65448973 C72.8771713,2.69062287 74.3471795,4.16063111 75.3833126,5.9248578 L128.419195,96.229198 C131.775464,101.943926 129.863555,109.297422 124.148827,112.653691 C122.306391,113.735756 120.208453,114.30626 118.071765,114.30626 L110.845,114.306 L75.3833126,53.9248578 C74.416255,52.2782462 73.071244,50.8879316 71.4618256,49.86746 L71.1129446,49.6544897 C65.3982166,46.2982209 58.0447208,48.2101298 54.688452,53.9248578 L54.688452,53.9248578 L19.226,114.306 L12,114.30626 C5.372583,114.30626 6.39488462e-14,108.933677 6.39488462e-14,102.30626 C6.39488462e-14,100.169572 0.570504214,98.0716337 1.65256967,96.229198 L54.688452,5.9248578 C58.0447208,0.210129832 65.3982166,-1.70177908 71.1129446,1.65448973 Z" id="path-2"></path>
        <linearGradient x1="100%" y1="71.9481753%" x2="0%" y2="71.9481753%" id="linearGradient-4">
            <stop stop-color="#EE4459" offset="0%"></stop>
            <stop stop-color="#FBF089" offset="100%"></stop>
        </linearGradient>
        <path d="M10.1423214,5.33771419 C32.7960575,1.77923806 51.0822704,0 65.00096,0 C78.9196497,0 97.2053745,1.77923806 119.858135,5.33771419 C125.696864,6.25210606 129.999891,11.2820596 130,17.1919556 L130,20 C130,26.1095746 125.047211,31.0623634 118.937637,31.0623634 C118.376389,31.0623634 117.815954,31.0196511 117.261184,30.9346257 C95.8038597,27.6448752 78.3837851,26 65.00096,26 C51.6180226,26 34.1973166,27.6449029 12.7388421,30.9347086 C6.69978068,31.8605298 1.05360812,27.7154564 0.127758316,21.6763994 C0.0427094167,21.1216494 -1.7076258e-15,20.5612315 0,20 L0,17.1919556 C0.000112236339,11.2818909 4.30338116,6.25184878 10.1423214,5.33771419 Z" id="path-5"></path>
    </defs>
    <g id="页面-1" stroke="none" stroke-width="1" fill="none" fill-rule="evenodd">
        <g id="矩形" transform="translate(0.964118, 0.693740)">
            <mask id="mask-3" fill="white">
                <use xlink:href="#path-2"></use>
            </mask>
            <use id="蒙版" fill="url(#linearGradient-1)" xlink:href="#path-2"></use>
            <polygon fill-opacity="0.2" fill="#FFFFFF" mask="url(#mask-3)" points="35.4882273 19.7031474 58.0413534 -11.6937398 83.912051 5.95818976 0 94.4304552"></polygon>
            <path d="M36,-32 L126,-32 L126,80.3467441 C110.991836,57.913759 95.6290684,41.6972665 79.9116968,31.6972665 C64.1943251,21.6972665 42.024505,15.242108 13.4022363,12.3317909 L36,-32 Z" fill-opacity="0.16" fill="#FFFFFF" mask="url(#mask-3)"></path>
        </g>
        <g id="编组" transform="translate(1.000000, 85.000000)">
            <mask id="mask-6" fill="white">
                <use xlink:href="#path-5"></use>
            </mask>
            <use id="蒙版" fill="url(#linearGradient-4)" xlink:href="#path-5"></use>
        </g>
    </g>
</svg>